<svg width="45" height="45" viewBox="0 0 45 45" fill="none" xmlns="http://www.w3.org/2000/svg">
<path d="M17.76 24.765L28.005 30.735M27.99 14.265L17.76 20.235M36.375 12C36.375 14.4853 34.3603 16.5 31.875 16.5C29.3897 16.5 27.375 14.4853 27.375 12C27.375 9.51472 29.3897 7.5 31.875 7.5C34.3603 7.5 36.375 9.51472 36.375 12ZM18.375 22.5C18.375 24.9853 16.3603 27 13.875 27C11.3897 27 9.375 24.9853 9.375 22.5C9.375 20.0147 11.3897 18 13.875 18C16.3603 18 18.375 20.0147 18.375 22.5ZM36.375 33C36.375 35.4853 34.3603 37.5 31.875 37.5C29.3897 37.5 27.375 35.4853 27.375 33C27.375 30.5147 29.3897 28.5 31.875 28.5C34.3603 28.5 36.375 30.5147 36.375 33Z" stroke="#131214" stroke-width="1.5" stroke-linecap="round" stroke-linejoin="round"/>
</svg>
